<svg width="16" height="16" viewBox="0 0 16 16" fill="none" xmlns="http://www.w3.org/2000/svg">
<g clip-path="url(#clip0_121_49)">
<rect x="3" y="8" width="10" height="3" fill="#242424"/>
<path d="M13.2504 14.0838H2.74917L1.90036 7.8896H0.757324L1.73907 15.2189H14.2608L15.2423 7.8896H14.0995L13.2504 14.0838Z" fill="#16AB88"/>
<path d="M12.6515 5.24097L10.5538 1.1761C10.3691 0.818002 9.92881 0.677752 9.57075 0.862408C9.21269 1.0471 9.07187 1.48738 9.25681 1.84547L11.0091 5.24097H4.99041L6.74322 1.84547C6.92763 1.48738 6.78734 1.0471 6.42903 0.862408C6.07122 0.67772 5.63091 0.818002 5.44597 1.1761L3.34825 5.24097H0V7.40309H16V5.24097H12.6515Z" fill="#16AB88"/>
<path d="M4.04078 11V8.2H4.45678V10.584H5.66278V11H4.04078ZM6.10328 9H6.51928V11H6.10328V9ZM6.31528 8.71C6.25128 8.71 6.19795 8.68933 6.15528 8.648C6.11261 8.60667 6.09128 8.55467 6.09128 8.492C6.09128 8.43067 6.11261 8.37933 6.15528 8.338C6.19795 8.29533 6.25061 8.274 6.31328 8.274C6.37461 8.274 6.42661 8.29533 6.46928 8.338C6.51195 8.37933 6.53328 8.43067 6.53328 8.492C6.53328 8.55467 6.51195 8.60667 6.46928 8.648C6.42795 8.68933 6.37661 8.71 6.31528 8.71ZM7.57047 11.038C7.46514 11.0313 7.36247 11.01 7.26247 10.974C7.16247 10.938 7.07447 10.8893 6.99847 10.828C6.9238 10.7653 6.8678 10.692 6.83047 10.608L7.18447 10.456C7.2018 10.492 7.2318 10.5273 7.27447 10.562C7.31847 10.5967 7.3698 10.6253 7.42847 10.648C7.48714 10.6693 7.54847 10.68 7.61247 10.68C7.67514 10.68 7.73314 10.6713 7.78647 10.654C7.84114 10.6353 7.8858 10.6073 7.92047 10.57C7.95514 10.5327 7.97247 10.488 7.97247 10.436C7.97247 10.3773 7.95247 10.332 7.91247 10.3C7.8738 10.2667 7.82514 10.2413 7.76647 10.224C7.7078 10.2067 7.64914 10.19 7.59047 10.174C7.4598 10.1447 7.3398 10.1047 7.23047 10.054C7.12247 10.002 7.03647 9.936 6.97247 9.856C6.90847 9.77467 6.87647 9.67533 6.87647 9.558C6.87647 9.43 6.91114 9.31933 6.98047 9.226C7.0498 9.13133 7.14047 9.05867 7.25247 9.008C7.3658 8.95733 7.48647 8.932 7.61447 8.932C7.77447 8.932 7.92114 8.966 8.05447 9.034C8.1878 9.102 8.2898 9.19533 8.36047 9.314L8.03047 9.51C8.01047 9.47 7.98047 9.434 7.94047 9.402C7.90047 9.37 7.85514 9.34467 7.80447 9.326C7.7538 9.306 7.70114 9.29467 7.64647 9.292C7.57847 9.28933 7.51514 9.29733 7.45647 9.316C7.39914 9.33333 7.35314 9.36133 7.31847 9.4C7.2838 9.43867 7.26647 9.488 7.26647 9.548C7.26647 9.60667 7.28714 9.65067 7.32847 9.68C7.3698 9.708 7.4218 9.73067 7.48447 9.748C7.54847 9.76533 7.6138 9.78467 7.68047 9.806C7.79914 9.84333 7.91047 9.88933 8.01447 9.944C8.11847 9.99733 8.20247 10.0633 8.26647 10.142C8.33047 10.2207 8.36114 10.3167 8.35847 10.43C8.35847 10.5553 8.32047 10.6653 8.24447 10.76C8.1698 10.8547 8.07247 10.9267 7.95247 10.976C7.83247 11.0253 7.70514 11.046 7.57047 11.038ZM9.75694 9.416H9.33694L9.33494 11H8.91894L8.92094 9.416H8.60294V9H8.92094L8.91894 8.372H9.33494L9.33694 9H9.75694V9.416ZM11.6241 9H12.0401V11H11.6221L11.6061 10.71C11.5475 10.8127 11.4681 10.8953 11.3681 10.958C11.2681 11.0207 11.1501 11.052 11.0141 11.052C10.8675 11.052 10.7295 11.0247 10.6001 10.97C10.4708 10.914 10.3568 10.8367 10.2581 10.738C10.1608 10.6393 10.0848 10.526 10.0301 10.398C9.97546 10.2687 9.94813 10.13 9.94813 9.982C9.94813 9.83933 9.97479 9.70533 10.0281 9.58C10.0815 9.45333 10.1555 9.34267 10.2501 9.248C10.3448 9.15333 10.4541 9.07933 10.5781 9.026C10.7035 8.97133 10.8375 8.944 10.9801 8.944C11.1255 8.944 11.2535 8.97733 11.3641 9.044C11.4761 9.10933 11.5688 9.19333 11.6421 9.296L11.6241 9ZM11.0041 10.65C11.1215 10.65 11.2241 10.6213 11.3121 10.564C11.4001 10.5053 11.4681 10.4267 11.5161 10.328C11.5655 10.2293 11.5901 10.12 11.5901 10C11.5901 9.87867 11.5655 9.76867 11.5161 9.67C11.4668 9.57133 11.3981 9.49333 11.3101 9.436C11.2235 9.37733 11.1215 9.348 11.0041 9.348C10.8881 9.348 10.7821 9.37733 10.6861 9.436C10.5901 9.49467 10.5141 9.57333 10.4581 9.672C10.4021 9.77067 10.3741 9.88 10.3741 10C10.3741 10.1213 10.4028 10.2313 10.4601 10.33C10.5188 10.4273 10.5955 10.5053 10.6901 10.564C10.7861 10.6213 10.8908 10.65 11.0041 10.65Z" fill="#FEFEFE"/>
<path d="M4.30445 14V11.2H5.95445V11.616H4.72045V12.292H5.76245V12.708H4.72045V14H4.30445ZM7.62608 12H8.04208V14H7.62408L7.60808 13.71C7.54941 13.8127 7.47008 13.8953 7.37008 13.958C7.27008 14.0207 7.15208 14.052 7.01608 14.052C6.86941 14.052 6.73141 14.0247 6.60208 13.97C6.47274 13.914 6.35874 13.8367 6.26008 13.738C6.16274 13.6393 6.08674 13.526 6.03208 13.398C5.97741 13.2687 5.95008 13.13 5.95008 12.982C5.95008 12.8393 5.97674 12.7053 6.03008 12.58C6.08341 12.4533 6.15741 12.3427 6.25208 12.248C6.34674 12.1533 6.45608 12.0793 6.58008 12.026C6.70541 11.9713 6.83941 11.944 6.98208 11.944C7.12741 11.944 7.25541 11.9773 7.36608 12.044C7.47808 12.1093 7.57074 12.1933 7.64408 12.296L7.62608 12ZM7.00608 13.65C7.12341 13.65 7.22608 13.6213 7.31408 13.564C7.40208 13.5053 7.47008 13.4267 7.51808 13.328C7.56741 13.2293 7.59208 13.12 7.59208 13C7.59208 12.8787 7.56741 12.7687 7.51808 12.67C7.46874 12.5713 7.40008 12.4933 7.31208 12.436C7.22541 12.3773 7.12341 12.348 7.00608 12.348C6.89008 12.348 6.78408 12.3773 6.68808 12.436C6.59208 12.4947 6.51608 12.5733 6.46008 12.672C6.40408 12.7707 6.37608 12.88 6.37608 13C6.37608 13.1213 6.40474 13.2313 6.46208 13.33C6.52074 13.4273 6.59741 13.5053 6.69208 13.564C6.78808 13.6213 6.89274 13.65 7.00608 13.65ZM6.93608 11.78L7.09608 11.204H7.51208L7.21608 11.78H6.93608ZM9.70811 13.432L10.0801 13.634C9.98944 13.7607 9.87411 13.862 9.73411 13.938C9.59544 14.014 9.44478 14.052 9.28211 14.052C9.09811 14.052 8.93011 14.0047 8.77811 13.91C8.62744 13.8153 8.50678 13.6887 8.41611 13.53C8.32678 13.37 8.28211 13.1933 8.28211 13C8.28211 12.8533 8.30811 12.7167 8.36011 12.59C8.41211 12.462 8.48344 12.35 8.57411 12.254C8.66611 12.1567 8.77278 12.0807 8.89411 12.026C9.01544 11.9713 9.14478 11.944 9.28211 11.944C9.44478 11.944 9.59544 11.982 9.73411 12.058C9.87411 12.134 9.98944 12.236 10.0801 12.364L9.70811 12.566C9.65211 12.4993 9.58678 12.4487 9.51211 12.414C9.43744 12.378 9.36078 12.36 9.28211 12.36C9.17278 12.36 9.07344 12.39 8.98411 12.45C8.89611 12.5087 8.82611 12.5867 8.77411 12.684C8.72344 12.78 8.69811 12.8853 8.69811 13C8.69811 13.1133 8.72411 13.2187 8.77611 13.316C8.82811 13.412 8.89811 13.4893 8.98611 13.548C9.07544 13.6067 9.17411 13.636 9.28211 13.636C9.36478 13.636 9.44344 13.6173 9.51811 13.58C9.59278 13.5427 9.65611 13.4933 9.70811 13.432ZM10.3787 12H10.7947V14H10.3787V12ZM10.5907 11.71C10.5267 11.71 10.4733 11.6893 10.4307 11.648C10.388 11.6067 10.3667 11.5547 10.3667 11.492C10.3667 11.4307 10.388 11.3793 10.4307 11.338C10.4733 11.2953 10.526 11.274 10.5887 11.274C10.65 11.274 10.702 11.2953 10.7447 11.338C10.7873 11.3793 10.8087 11.4307 10.8087 11.492C10.8087 11.5547 10.7873 11.6067 10.7447 11.648C10.7033 11.6893 10.652 11.71 10.5907 11.71ZM11.281 14V11H11.697V14H11.281Z" fill="#16AB88"/>
</g>
<defs>
<clipPath id="clip0_121_49">
<rect width="16" height="16" fill="white"/>
</clipPath>
</defs>
</svg>
